<svg xmlns="http://www.w3.org/2000/svg" viewBox="0 0 512 512">
  <rect width="512" height="512" fill="#f59e0b" rx="64"/>
  <g fill="white">
    <!-- Squirrel body -->
    <ellipse cx="256" cy="280" rx="120" ry="140"/>
    <!-- Squirrel head -->
    <circle cx="256" cy="160" r="80"/>
    <!-- Left ear -->
    <ellipse cx="200" cy="100" rx="25" ry="40"/>
    <!-- Right ear -->
    <ellipse cx="312" cy="100" rx="25" ry="40"/>
    <!-- Tail -->
    <path d="M256 420 Q200 400 180 320 Q160 240 200 200 Q240 160 280 200 Q320 240 300 320 Q280 400 256 420"/>
    <!-- Left eye -->
    <circle cx="230" cy="150" r="15" fill="#0a0a0a"/>
    <!-- Right eye -->
    <circle cx="282" cy="150" r="15" fill="#0a0a0a"/>
    <!-- Nose -->
    <ellipse cx="256" cy="180" rx="12" ry="8" fill="#0a0a0a"/>
    <!-- Mouth -->
    <path d="M240 195 Q256 210 272 195" stroke="#0a0a0a" stroke-width="4" fill="none"/>
    <!-- Left whiskers -->
    <line x1="200" y1="175" x2="160" y2="170" stroke="#0a0a0a" stroke-width="2"/>
    <line x1="200" y1="185" x2="160" y2="190" stroke="#0a0a0a" stroke-width="2"/>
    <!-- Right whiskers -->
    <line x1="312" y1="175" x2="352" y2="170" stroke="#0a0a0a" stroke-width="2"/>
    <line x1="312" y1="185" x2="352" y2="190" stroke="#0a0a0a" stroke-width="2"/>
    <!-- Left paw -->
    <ellipse cx="180" cy="380" rx="30" ry="20"/>
    <!-- Right paw -->
    <ellipse cx="332" cy="380" rx="30" ry="20"/>
  </g>
</svg>